<svg width="29" height="35" viewBox="0 0 29 35" fill="none" xmlns="http://www.w3.org/2000/svg">
<path d="M0.296009 8.00754C0.145091 7.37872 0.621714 6.77417 1.2684 6.77417H27.006C27.637 6.77417 28.1103 7.35149 27.9866 7.97029L22.7414 34.1961C22.6479 34.6635 22.2375 35 21.7608 35H7.56259C7.1002 35 6.69811 34.683 6.5902 34.2333L0.296009 8.00754Z" fill="#A95A5A"/>
<path d="M4.73863 10.7814C4.62302 10.1659 5.09517 9.5968 5.72144 9.5968H23.6334C24.2597 9.5968 24.7318 10.1659 24.6162 10.7814L20.9273 30.4212C20.8385 30.894 20.4256 31.2366 19.9445 31.2366H9.41031C8.92921 31.2366 8.5163 30.894 8.42749 30.4212L4.73863 10.7814Z" fill="#E9EEE0"/>
<rect width="2.25218" height="24.3797" transform="matrix(0.994036 -0.109056 0.156048 0.98775 6.7742 8.0835)" fill="#A95A5A"/>
<rect x="13.5484" y="7.71509" width="2.25806" height="24.2889" fill="#A95A5A"/>
<rect width="2.25218" height="24.3797" transform="matrix(0.994036 0.109056 -0.156048 0.98775 20.7399 7.71509)" fill="#A95A5A"/>
<rect y="3.38708" width="28.2258" height="2.25806" rx="1" fill="#A95A5A"/>
<rect x="12.4194" width="3.3871" height="4.51613" rx="1" fill="#A95A5A"/>
</svg>
