<svg width="35" height="35" viewBox="0 0 35 35" fill="none" xmlns="http://www.w3.org/2000/svg">
<rect width="35" height="35" rx="5" fill="#6F706D"/>
<path d="M3.30664 18V16.8926L4.73926 16.6465V6.56543L3.30664 6.31934V5.20312H4.73926H7.05078L11.1729 14.915H11.2256L15.2158 5.20312H19.0742V6.31934L17.6416 6.56543V16.6465L19.0742 16.8926V18H14.4775V16.8926L15.9893 16.6465V12.9375V7.56738L15.9453 7.55859L11.7881 17.543H10.6367L6.33887 7.57617L6.29492 7.58496L6.35645 12.9375V16.6465L7.90332 16.8926V18H3.30664ZM20.6123 18V16.8926L22.0449 16.6465V6.56543L20.6123 6.31934V5.20312H22.0449H26.1318C27.4678 5.20312 28.5107 5.49316 29.2607 6.07324C30.0166 6.64746 30.3945 7.51172 30.3945 8.66602C30.3945 9.23438 30.2129 9.74414 29.8496 10.1953C29.4922 10.6406 29.0176 10.9717 28.4258 11.1885C28.9414 11.2939 29.3838 11.502 29.7529 11.8125C30.1221 12.1172 30.4062 12.4922 30.6055 12.9375C30.8105 13.377 30.9131 13.8604 30.9131 14.3877C30.9131 15.5596 30.5322 16.4561 29.7705 17.0771C29.0088 17.6924 27.9775 18 26.6768 18H20.6123ZM23.7764 16.6465H26.6768C27.4678 16.6465 28.0801 16.4531 28.5137 16.0664C28.9531 15.6738 29.1729 15.1201 29.1729 14.4053C29.1729 13.9014 29.0908 13.4707 28.9268 13.1133C28.7686 12.7559 28.5225 12.4805 28.1885 12.2871C27.8604 12.0938 27.4443 11.9971 26.9404 11.9971H23.7764V16.6465ZM23.7764 10.6436H26.5801C27.2012 10.6436 27.7021 10.4648 28.083 10.1074C28.4697 9.74414 28.6631 9.25195 28.6631 8.63086C28.6631 7.93945 28.4463 7.42383 28.0127 7.08398C27.5791 6.73828 26.9521 6.56543 26.1318 6.56543H23.7764V10.6436Z" fill="#E9EEE0"/>
<path d="M5.54409 28.008C5.51209 28.0187 5.48543 28.024 5.46409 28.024C5.43743 28.024 5.40809 28.016 5.37609 28C5.23743 27.7867 5.12809 27.6053 5.04809 27.456C4.97343 27.3013 4.84809 27.0347 4.67209 26.656C4.48009 26.208 4.23476 25.576 3.93609 24.76C3.63743 23.944 3.48809 23.4453 3.48809 23.264C3.48809 23.216 3.49876 23.1813 3.52009 23.16C3.54143 23.1333 3.56809 23.12 3.60009 23.12C3.62676 23.12 3.64809 23.1253 3.66409 23.136C3.72809 23.1733 3.82943 23.36 3.96809 23.696C4.11209 24.0267 4.30943 24.5227 4.56009 25.184C4.97076 26.272 5.29609 27.0773 5.53609 27.6C5.65343 27.488 5.81876 27.1573 6.03209 26.608C6.24543 26.0533 6.44009 25.44 6.61609 24.768C6.79743 24.096 6.90409 23.5253 6.93609 23.056C7.17076 23.04 7.28809 23.1333 7.28809 23.336C7.28809 23.6773 7.19209 24.2107 7.00009 24.936C6.80809 25.6613 6.57609 26.3307 6.30409 26.944C6.03209 27.552 5.77876 27.9067 5.54409 28.008ZM9.95791 28.008C9.51524 28.008 9.11791 27.9173 8.76591 27.736C8.41924 27.5547 8.14724 27.2987 7.94991 26.968C7.75257 26.6373 7.65391 26.256 7.65391 25.824C7.65391 25.5307 7.71257 25.2613 7.82991 25.016C7.94724 24.7707 8.11791 24.576 8.34191 24.432C8.56591 24.2827 8.82991 24.208 9.13391 24.208C9.70991 24.208 10.2219 24.3067 10.6699 24.504C11.1232 24.696 11.4752 24.9733 11.7259 25.336C11.9819 25.6987 12.1099 26.1173 12.1099 26.592C12.1099 26.9067 11.9926 27.1707 11.7579 27.384C11.5286 27.5973 11.2459 27.7547 10.9099 27.856C10.5792 27.9573 10.2619 28.008 9.95791 28.008ZM9.80591 27.592C10.3392 27.592 10.7872 27.512 11.1499 27.352C11.5179 27.192 11.7019 26.9253 11.7019 26.552C11.7019 25.9013 11.4512 25.4133 10.9499 25.088C10.4486 24.7573 9.80857 24.592 9.02991 24.592C8.65657 24.592 8.39257 24.704 8.23791 24.928C8.08857 25.1467 8.01391 25.4453 8.01391 25.824C8.01391 26.1387 8.08857 26.432 8.23791 26.704C8.39257 26.9707 8.60591 27.1867 8.87791 27.352C9.14991 27.512 9.45924 27.592 9.80591 27.592ZM16.3872 28.272C16.3498 28.3147 16.2965 28.336 16.2272 28.336C15.9765 28.336 15.5765 28.1067 15.0272 27.648C14.4832 27.184 14.0005 26.7227 13.5792 26.264C13.6058 26.408 13.6565 26.6507 13.7312 26.992C13.7632 27.1253 13.7898 27.2533 13.8112 27.376C13.8378 27.4987 13.8512 27.5947 13.8512 27.664C13.8512 27.8187 13.7952 27.912 13.6832 27.944C13.6565 28.0133 13.5845 27.84 13.4672 27.424C13.3552 27.008 13.2485 26.528 13.1472 25.984C13.0512 25.4347 13.0032 24.976 13.0032 24.608C13.0032 24.4213 13.0192 24.2693 13.0512 24.152C13.1205 24.0987 13.1792 24.072 13.2272 24.072C13.3232 24.072 13.3898 24.1547 13.4272 24.32C13.4645 24.48 13.4992 24.7333 13.5312 25.08L13.5472 25.264C13.7552 25.2533 14.0378 25.208 14.3952 25.128C14.7578 25.048 15.0805 24.9387 15.3632 24.8C15.6512 24.656 15.7952 24.4853 15.7952 24.288C15.7952 24.1813 15.7178 24.064 15.5632 23.936C15.4138 23.8027 15.1818 23.6907 14.8672 23.6C14.5578 23.5093 14.1765 23.464 13.7232 23.464H13.4672C13.1632 23.464 12.9258 23.5147 12.7552 23.616C12.5845 23.712 12.4992 23.92 12.4992 24.24C12.4192 24.24 12.3472 24.1893 12.2832 24.088C12.2192 23.9867 12.1872 23.8933 12.1872 23.808C12.1872 23.4773 12.3445 23.2613 12.6592 23.16C12.9792 23.0587 13.4378 23.008 14.0352 23.008C14.3498 23.008 14.6778 23.0587 15.0192 23.16C15.3605 23.2613 15.6485 23.4213 15.8832 23.64C16.1178 23.8533 16.2352 24.12 16.2352 24.44C16.2352 24.6587 16.1365 24.84 15.9392 24.984C15.7472 25.128 15.5205 25.24 15.2592 25.32C14.9978 25.4 14.6778 25.4827 14.2992 25.568C13.9845 25.6373 13.7792 25.688 13.6832 25.72C14.0938 26.2747 14.4885 26.7067 14.8672 27.016C15.2512 27.3253 15.6512 27.6053 16.0672 27.856C16.2112 27.9413 16.3125 28.0053 16.3712 28.048C16.4298 28.0907 16.4592 28.1307 16.4592 28.168C16.4592 28.2053 16.4352 28.24 16.3872 28.272ZM19.249 28.008C19.0997 28.008 18.9957 27.9307 18.937 27.776C18.8784 27.6213 18.8304 27.4133 18.793 27.152L18.769 26.952C18.689 26.5253 18.625 26.1013 18.577 25.68C18.529 25.2533 18.481 24.7387 18.433 24.136L18.385 23.544C18.065 23.5493 17.609 23.536 17.017 23.504L16.857 23.496C16.7824 23.4907 16.729 23.456 16.697 23.392C16.6704 23.3227 16.657 23.2293 16.657 23.112H17.209C18.137 23.112 18.9744 23.1467 19.721 23.216C20.4677 23.2853 20.841 23.4267 20.841 23.64C20.841 23.6987 20.8304 23.7387 20.809 23.76C20.793 23.7813 20.7557 23.792 20.697 23.792C20.4837 23.776 20.153 23.7307 19.705 23.656C19.6037 23.64 19.481 23.6213 19.337 23.6C19.193 23.5787 19.0304 23.5573 18.849 23.536C18.849 24.3093 18.9637 25.4987 19.193 27.104C19.2037 27.184 19.241 27.2987 19.305 27.448C19.3317 27.512 19.3557 27.5813 19.377 27.656C19.4037 27.7253 19.417 27.7893 19.417 27.848C19.417 27.9227 19.4064 27.968 19.385 27.984C19.3637 28 19.337 28.008 19.305 28.008C19.2784 28.008 19.2597 28.008 19.249 28.008ZM23.107 28.008C22.6643 28.008 22.3416 27.9253 22.139 27.76C21.9416 27.5947 21.843 27.296 21.843 26.864L21.955 25.072V23.352C21.955 23.2187 21.9816 23.1333 22.035 23.096C22.0883 23.0533 22.2056 23.032 22.387 23.032L22.931 23.048C23.6136 23.0853 24.2803 23.104 24.931 23.104C25.0696 23.104 25.179 23.144 25.259 23.224C25.3443 23.304 25.387 23.4133 25.387 23.552C25.387 23.5787 25.379 23.6 25.363 23.616C25.347 23.632 25.3283 23.6373 25.307 23.632L24.931 23.488L22.427 23.552C22.395 23.552 22.3763 23.5493 22.371 23.544C22.3923 23.5867 22.403 23.624 22.403 23.656V25.072C22.6483 25.088 22.8856 25.096 23.115 25.096C23.5096 25.096 23.9443 25.0773 24.419 25.04C24.467 25.0347 24.539 25.0293 24.635 25.024C24.7363 25.0133 24.7923 25.0133 24.803 25.024C24.835 25.056 24.859 25.0853 24.875 25.112C24.891 25.1387 24.9016 25.176 24.907 25.224C24.923 25.3413 24.7443 25.4187 24.371 25.456C24.003 25.4933 23.5096 25.5227 22.891 25.544C22.683 25.544 22.5096 25.5493 22.371 25.56C22.307 25.72 22.275 25.976 22.275 26.328L22.283 26.8V27.32C22.3683 27.3893 22.4616 27.4347 22.563 27.456C22.6643 27.4773 22.8296 27.488 23.059 27.488C23.299 27.488 23.5336 27.4747 23.763 27.448C23.9976 27.4213 24.1363 27.4053 24.179 27.4C24.627 27.3467 24.9603 27.32 25.179 27.32C25.307 27.32 25.395 27.3333 25.443 27.36C25.4963 27.3813 25.523 27.4213 25.523 27.48C25.523 27.832 24.8083 28.008 23.379 28.008H23.107ZM26.3985 28.488C26.3399 28.488 26.2999 28.4667 26.2785 28.424C26.2625 28.3867 26.2545 28.3253 26.2545 28.24C26.2545 27.952 26.3639 27.6347 26.5825 27.288C26.8065 26.936 27.0972 26.5413 27.4545 26.104C27.5505 25.992 27.6225 25.9013 27.6705 25.832L27.3985 25.4C27.1799 25.0587 27.0172 24.784 26.9105 24.576C26.8092 24.368 26.7585 24.1707 26.7585 23.984C26.7585 23.9147 26.7692 23.8667 26.7905 23.84C26.8172 23.8133 26.8625 23.8 26.9265 23.8C26.9799 23.8 27.0625 23.888 27.1745 24.064C27.2865 24.2347 27.4385 24.4853 27.6305 24.816C27.6679 24.8853 27.7292 24.9947 27.8145 25.144C27.9052 25.288 27.9665 25.3733 27.9985 25.4C28.2492 25.1707 28.4572 24.9947 28.6225 24.872C28.7879 24.7493 29.0385 24.5813 29.3745 24.368C29.5079 24.288 29.6332 24.2187 29.7505 24.16C29.8732 24.096 29.9879 24.064 30.0945 24.064C30.2119 24.064 30.2812 24.12 30.3025 24.232C29.9452 24.456 29.5745 24.7227 29.1905 25.032C28.8065 25.3413 28.5025 25.6373 28.2785 25.92C28.3265 26.0587 28.4145 26.2187 28.5425 26.4C28.6705 26.5813 28.8359 26.8 29.0385 27.056C29.2359 27.312 29.3772 27.504 29.4625 27.632C29.5479 27.7547 29.5905 27.8507 29.5905 27.92C29.5905 27.9787 29.5505 28.008 29.4705 28.008C29.4279 28.008 29.3745 28 29.3105 27.984C29.1612 27.8667 29.0199 27.7253 28.8865 27.56C28.7532 27.3893 28.5985 27.176 28.4225 26.92C28.1559 26.552 27.9825 26.3227 27.9025 26.232C27.6785 26.4933 27.4119 26.8533 27.1025 27.312L26.9265 27.568C26.8732 27.648 26.7985 27.7947 26.7025 28.008C26.6332 28.1627 26.5772 28.2773 26.5345 28.352C26.4919 28.4267 26.4465 28.472 26.3985 28.488Z" fill="#E9EEE0"/>
</svg>
