<svg width="40" height="40" viewBox="0 0 40 40" fill="none" xmlns="http://www.w3.org/2000/svg">
<path d="M31.6666 3.33331L23.3333 10.8333V29.1666L31.6666 21.6666V3.33331ZM10.8333 8.33331C7.58329 8.33331 4.08329 8.99998 1.66663 10.8333V35.2666C1.66663 35.6833 2.08329 36.1 2.49996 36.1C2.66663 36.1 2.74996 35.9833 2.91663 35.9833C5.16663 34.9 8.41663 34.1666 10.8333 34.1666C14.0833 34.1666 17.5833 34.8333 20 36.6666C22.25 35.25 26.3333 34.1666 29.1666 34.1666C31.9166 34.1666 34.75 34.6833 37.0833 35.9333C37.25 36.0166 37.3333 35.9833 37.5 35.9833C37.9166 35.9833 38.3333 35.5666 38.3333 35.15V10.8333C37.3333 10.0833 36.25 9.58331 35 9.16665V12.5V21.6666V31.6666C33.1666 31.0833 31.1666 30.8333 29.1666 30.8333C26.3333 30.8333 22.25 31.9166 20 33.3333V21.6666V14.1666V10.8333C17.5833 8.99998 14.0833 8.33331 10.8333 8.33331Z" fill="#E9AB90"/>
</svg>
